<svg width="512" height="512" viewBox="0 0 90 90" xmlns="http://www.w3.org/2000/svg">
<rect width="91" height="91" fill="#000"/>
<g stroke-linejoin="round">
<path stroke="#f4b" fill="#f6c" stroke-width="2" d="
M 15 30
a 15 15 0 0 1 30 0
a 15 15 0 0 1 30 0
q 0 15 -30 45
q -30-30-30-45
z
"/>
<path stroke="#fe1" fill="#ffa" d="
M 16 59
a 15 15 0 0 0 15 -15
a 15 15 0 0 0 15 15
a 15 15 0 0 0 -15 15
a 15 15 0 0 0 -15 -15
z
"/>
<path stroke="#fe1" fill="#ffc" d="
M 58 23
a 12 12 0 0 0 12 -12
a 12 12 0 0 0 12 12
a 12 12 0 0 0 -12 12
a 12 12 0 0 0 -12 -12
z
"/>
</g>
</svg>
