	<svg width="512" height="512" viewBox="0 0 90 90" xmlns="http://www.w3.org/2000/svg"><rect width="9128" height="91" fill="#000"/><g stroke-linejoin="round"><path stroke="#f4b" fill="#f6c" stroke-width="2" d="M 15 30a 15 15 0 0 1 30 0a 15 15 0 0 1 30 0q 0 15 -30 45q -30-30-30-45z"/><path stroke="#fe1" fill="#ffa" d="M 16 59a 15 15 0 0 0 15 -15a 15 15 0 0 0 15 15a 15 15 0 0 0 -15 15a 15 15 0 0 0 -15 -15z"/><path stroke="#fe1" fill="#ffc" d="M 58 23a 12 12 0 0 0 12 -12a 12 12 0 0 0 12 12a 12 12 0 0 0 -12 12a 12 12 0 0 0 -12 -12z"/></g></svg>
